<svg xmlns="http://www.w3.org/2000/svg" viewBox="0 0 400 400" width="400" height="400" preserveAspectRatio="xMidYMid meet" style="width: 100%; height: 100%; transform: translate3d(0px, 0px, 0px); content-visibility: visible;"><defs><clipPath id="__lottie_element_30"><rect width="400" height="400" x="0" y="0"></rect></clipPath></defs><g clip-path="url(#__lottie_element_30)"><g transform="matrix(1,0,0,1,234.34500122070312,170.45101928710938)" opacity="1" style="display: block;"><g opacity="1" transform="matrix(1,0,0,1,14.918999671936035,28.076000213623047)"><path fill="rgb(158,119,0)" fill-opacity="1" d=" M0,27.826000213623047 C0,27.826000213623047 14.668999671936035,12.569999694824219 14.668999671936035,12.569999694824219 C14.668999671936035,12.569999694824219 9.737000465393066,-16.305999755859375 9.737000465393066,-16.305999755859375 C9.737000465393066,-16.305999755859375 -14.668999671936035,-27.826000213623047 -14.668999671936035,-27.826000213623047 C-14.668999671936035,-27.826000213623047 -36.939998626708984,18.29400062561035 -36.939998626708984,18.29400062561035 C-36.939998626708984,18.29400062561035 0,27.826000213623047 0,27.826000213623047z"></path></g><g opacity="1" transform="matrix(1,0,0,1,32.4640007019043,36.79999923706055)"><path fill="rgb(223,188,164)" fill-opacity="1" d=" M-17.545000076293945,19.10099983215332 C-17.545000076293945,19.10099983215332 11.574999809265137,25.0310001373291 11.574999809265137,25.0310001373291 C11.574999809265137,25.0310001373291 17.545000076293945,-8.468999862670898 17.545000076293945,-8.468999862670898 C17.545000076293945,-8.468999862670898 10.024999618530273,-18.184999465942383 10.024999618530273,-18.184999465942383 C10.024999618530273,-18.184999465942383 -7.808000087738037,-25.0310001373291 -7.808000087738037,-25.0310001373291 C-7.808000087738037,-25.0310001373291 -17.545000076293945,19.10099983215332 -17.545000076293945,19.10099983215332z"></path></g></g><g transform="matrix(1,0,0,1,-0.00001567355138831772,0.000015528843505308032)" opacity="1" style="display: block;"><g opacity="1" transform="matrix(1,0,0,1,296.010009765625,199.13099670410156)"><path fill="rgb(195,151,122)" fill-opacity="1" d=" M-17.625999450683594,33.150001525878906 C-17.625999450683594,33.150001525878906 19.177000045776367,-15.538999557495117 19.177000045776367,-15.538999557495117 C19.177000045776367,-15.538999557495117 18.559999465942383,-33.150001525878906 18.559999465942383,-33.150001525878906 C18.559999465942383,-33.150001525878906 6.310999870300293,-24.4689998626709 6.310999870300293,-24.4689998626709 C6.310999870300293,-24.4689998626709 -19.176000595092773,-10.065999984741211 -19.176000595092773,-10.065999984741211 C-19.176000595092773,-10.065999984741211 -17.625999450683594,33.150001525878906 -17.625999450683594,33.150001525878906z"></path></g></g><g transform="matrix(1,0,0,1,267.0979919433594,120.3280029296875)" opacity="1" style="display: block;"><g opacity="1" transform="matrix(1,0,0,1,47.749000549316406,44.80799865722656)"><path fill="rgb(138,102,81)" fill-opacity="1" d=" M-1.9270000457763672,-18.45599937438965 C-1.9270000457763672,-18.45599937438965 12.871999740600586,5.164999961853027 12.871999740600586,5.164999961853027 C12.871999740600586,5.164999961853027 0.3409999907016754,18.45599937438965 0.3409999907016754,18.45599937438965 C0.3409999907016754,18.45599937438965 -12.524999618530273,9.526000022888184 -12.524999618530273,9.526000022888184 C-12.524999618530273,9.526000022888184 -8.399999618530273,-4.234000205993652 -8.399999618530273,-4.234000205993652 C-8.399999618530273,-4.234000205993652 -12.871999740600586,-8.512999534606934 -12.871999740600586,-8.512999534606934 C-12.871999740600586,-8.512999534606934 -1.9270000457763672,-18.45599937438965 -1.9270000457763672,-18.45599937438965z"></path></g><g opacity="1" transform="matrix(1,0,0,1,48.47100067138672,34.867000579833984)"><path fill="rgb(157,160,161)" fill-opacity="1" d=" M-17.94499969482422,-20.121000289916992 C-17.94499969482422,-20.121000289916992 27.07699966430664,12.585000038146973 27.07699966430664,12.585000038146973 C27.07699966430664,12.585000038146973 20.58099937438965,20.121000289916992 20.58099937438965,20.121000289916992 C20.58099937438965,20.121000289916992 -13.593999862670898,1.4279999732971191 -13.593999862670898,1.4279999732971191 C-13.593999862670898,1.4279999732971191 -27.07699966430664,-6.1519999504089355 -27.07699966430664,-6.1519999504089355 C-27.07699966430664,-6.1519999504089355 -17.94499969482422,-20.121000289916992 -17.94499969482422,-20.121000289916992z"></path></g><g opacity="1" transform="matrix(1,0,0,1,17.888999938964844,16.797000885009766)"><path fill="rgb(110,112,115)" fill-opacity="1" d=" M9.050999641418457,-14.237000465393066 C9.050999641418457,-14.237000465393066 17.638999938964844,-2.0160000324249268 17.638999938964844,-2.0160000324249268 C17.638999938964844,-2.0160000324249268 11.625,9.892000198364258 11.625,9.892000198364258 C11.625,9.892000198364258 6.146999835968018,16.547000885009766 6.146999835968018,16.547000885009766 C6.146999835968018,16.547000885009766 -6.6020002365112305,15.40999984741211 -6.6020002365112305,15.40999984741211 C-6.6020002365112305,15.40999984741211 -17.638999938964844,0.7630000114440918 -17.638999938964844,0.7630000114440918 C-17.638999938964844,0.7630000114440918 -6.861000061035156,-16.547000885009766 -6.861000061035156,-16.547000885009766 C-6.861000061035156,-16.547000885009766 9.050999641418457,-14.237000465393066 9.050999641418457,-14.237000465393066z"></path></g><g opacity="1" transform="matrix(1,0,0,1,23.406999588012695,17.95199966430664)"><path fill="rgb(79,82,82)" fill-opacity="1" d=" M3.5329999923706055,-15.392000198364258 C3.5329999923706055,-15.392000198364258 12.119999885559082,-3.1710000038146973 12.119999885559082,-3.1710000038146973 C12.119999885559082,-3.1710000038146973 6.105999946594238,8.737000465393066 6.105999946594238,8.737000465393066 C6.105999946594238,8.737000465393066 0.628000020980835,15.392000198364258 0.628000020980835,15.392000198364258 C0.628000020980835,15.392000198364258 -12.119999885559082,14.255000114440918 -12.119999885559082,14.255000114440918 C-12.119999885559082,14.255000114440918 3.5329999923706055,-15.392000198364258 3.5329999923706055,-15.392000198364258z"></path></g><g opacity="1" transform="matrix(1,0,0,1,32.5,25.91699981689453)"><path fill="rgb(43,43,43)" fill-opacity="1" d=" M4.078000068664551,-12.784000396728516 C4.078000068664551,-12.784000396728516 9.53600025177002,-9.017000198364258 9.53600025177002,-9.017000198364258 C9.53600025177002,-9.017000198364258 -4.188000202178955,12.784000396728516 -4.188000202178955,12.784000396728516 C-4.188000202178955,12.784000396728516 -9.53600025177002,9.302000045776367 -9.53600025177002,9.302000045776367 C-9.53600025177002,9.302000045776367 4.078000068664551,-12.784000396728516 4.078000068664551,-12.784000396728516z"></path></g><g opacity="1" transform="matrix(1,0,0,1,53.58399963378906,35.821998596191406)"><path fill="rgb(195,151,122)" fill-opacity="1" d=" M-6.703999996185303,-14.420999526977539 C-6.703999996185303,-14.420999526977539 -16.113000869750977,1.9320000410079956 -16.113000869750977,1.9320000410079956 C-16.113000869750977,1.9320000410079956 6.789000034332275,14.420999526977539 6.789000034332275,14.420999526977539 C6.789000034332275,14.420999526977539 16.113000869750977,1.9509999752044678 16.113000869750977,1.9509999752044678 C16.113000869750977,1.9509999752044678 -6.703999996185303,-14.420999526977539 -6.703999996185303,-14.420999526977539z"></path></g><g opacity="1" transform="matrix(1,0,0,1,42.91899871826172,43.071998596191406)"><path fill="rgb(223,188,164)" fill-opacity="1" d=" M4.966000080108643,-11.26200008392334 C4.966000080108643,-11.26200008392334 -8.015000343322754,-6.7769999504089355 -8.015000343322754,-6.7769999504089355 C-8.015000343322754,-6.7769999504089355 -7.695000171661377,11.26200008392334 -7.695000171661377,11.26200008392334 C-7.695000171661377,11.26200008392334 8.015000343322754,-5.432000160217285 8.015000343322754,-5.432000160217285 C8.015000343322754,-5.432000160217285 4.966000080108643,-11.26200008392334 4.966000080108643,-11.26200008392334z"></path></g></g><g transform="matrix(1,0,0,1,75.80101013183594,176.42601013183594)" opacity="1" style="display: block;"><g opacity="1" transform="matrix(1,0,0,1,20.9060001373291,30.474000930786133)"><path fill="rgb(195,151,122)" fill-opacity="1" d=" M-7.2769999504089355,-30.224000930786133 C-7.2769999504089355,-30.224000930786133 20.656999588012695,-13.189000129699707 20.656999588012695,-13.189000129699707 C20.656999588012695,-13.189000129699707 20.656999588012695,11.281999588012695 20.656999588012695,11.281999588012695 C20.656999588012695,11.281999588012695 14.27299976348877,30.224000930786133 14.27299976348877,30.224000930786133 C14.27299976348877,30.224000930786133 -20.656999588012695,-20.4950008392334 -20.656999588012695,-20.4950008392334 C-20.656999588012695,-20.4950008392334 -15.045000076293945,-28.812999725341797 -15.045000076293945,-28.812999725341797 C-15.045000076293945,-28.812999725341797 -7.2769999504089355,-30.224000930786133 -7.2769999504089355,-30.224000930786133z"></path></g></g><g transform="matrix(1,0,0,1,110.7300033569336,158.1380157470703)" opacity="1" style="display: block;"><g opacity="1" transform="matrix(1,0,0,1,53.16600036621094,11.086000442504883)"><path fill="rgb(133,99,0)" fill-opacity="1" d=" M-15.190999984741211,6.0920000076293945 C-15.190999984741211,6.0920000076293945 7.054999828338623,-10.836000442504883 7.054999828338623,-10.836000442504883 C7.054999828338623,-10.836000442504883 18.381000518798828,-6.9710001945495605 18.381000518798828,-6.9710001945495605 C18.381000518798828,-6.9710001945495605 19.906999588012695,6.192999839782715 19.906999588012695,6.192999839782715 C19.906999588012695,6.192999839782715 0.17800000309944153,11.493000030517578 0.17800000309944153,11.493000030517578 C0.17800000309944153,11.493000030517578 -15.190999984741211,6.0920000076293945 -15.190999984741211,6.0920000076293945z"></path></g><g opacity="1" transform="matrix(1,0,0,1,29.1560001373291,41.61600112915039)"><path fill="rgb(117,87,0)" fill-opacity="1" d=" M1.0440000295639038,24.437999725341797 C1.0440000295639038,24.437999725341797 43.56700134277344,7.691999912261963 43.56700134277344,7.691999912261963 C43.56700134277344,7.691999912261963 24.01300048828125,-19.98699951171875 24.01300048828125,-19.98699951171875 C24.01300048828125,-19.98699951171875 8.819000244140625,-24.437999725341797 8.819000244140625,-24.437999725341797 C8.819000244140625,-24.437999725341797 -7.206999778747559,-14.583000183105469 -7.206999778747559,-14.583000183105469 C-7.206999778747559,-14.583000183105469 -19.04199981689453,15.437999725341797 -19.04199981689453,15.437999725341797 C-19.04199981689453,15.437999725341797 1.0440000295639038,24.437999725341797 1.0440000295639038,24.437999725341797z"></path></g><g opacity="1" transform="matrix(1,0,0,1,15.225000381469727,53.0099983215332)"><path fill="rgb(223,188,164)" fill-opacity="1" d=" M14.975000381469727,13.043999671936035 C14.975000381469727,13.043999671936035 6.723999977111816,-25.976999282836914 6.723999977111816,-25.976999282836914 C6.723999977111816,-25.976999282836914 -8.592000007629395,-17.43600082397461 -8.592000007629395,-17.43600082397461 C-8.592000007629395,-17.43600082397461 -14.975000381469727,25.976999282836914 -14.975000381469727,25.976999282836914 C-14.975000381469727,25.976999282836914 14.975000381469727,13.043999671936035 14.975000381469727,13.043999671936035z"></path></g></g><g transform="matrix(1,0,0,1,56.194007873535156,139.39102172851562)" opacity="1" style="display: block;"><g opacity="1" transform="matrix(1,0,0,1,19.224000930786133,31.437999725341797)"><path fill="rgb(138,102,81)" fill-opacity="1" d=" M-14.01200008392334,0 C-14.01200008392334,0 -5.682000160217285,-10.395999908447266 -5.682000160217285,-10.395999908447266 C-5.682000160217285,-10.395999908447266 8.92300033569336,-15.574999809265137 8.92300033569336,-15.574999809265137 C8.92300033569336,-15.574999809265137 14.01200008392334,5.8470001220703125 14.01200008392334,5.8470001220703125 C14.01200008392334,5.8470001220703125 0.6330000162124634,15.574999809265137 0.6330000162124634,15.574999809265137 C0.6330000162124634,15.574999809265137 -14.01200008392334,0 -14.01200008392334,0z"></path></g><g opacity="1" transform="matrix(1,0,0,1,14.197999954223633,15.843999862670898)"><path fill="rgb(195,151,122)" fill-opacity="1" d=" M-3.5859999656677246,-15.593999862670898 C-3.5859999656677246,-15.593999862670898 13.947999954223633,0.01899999938905239 13.947999954223633,0.01899999938905239 C13.947999954223633,0.01899999938905239 -8.986000061035156,15.593999862670898 -8.986000061035156,15.593999862670898 C-8.986000061035156,15.593999862670898 -13.947999954223633,-3.9809999465942383 -13.947999954223633,-3.9809999465942383 C-13.947999954223633,-3.9809999465942383 -3.5859999656677246,-15.593999862670898 -3.5859999656677246,-15.593999862670898z"></path></g><g opacity="1" transform="matrix(1,0,0,1,29.05900001525879,27.04400062561035)"><path fill="rgb(223,188,164)" fill-opacity="1" d=" M-0.9129999876022339,-15.182000160217285 C-0.9129999876022339,-15.182000160217285 -5.60099983215332,4.433000087738037 -5.60099983215332,4.433000087738037 C-5.60099983215332,4.433000087738037 -2.61899995803833,15.182000160217285 -2.61899995803833,15.182000160217285 C-2.61899995803833,15.182000160217285 4.177999973297119,10.241000175476074 4.177999973297119,10.241000175476074 C4.177999973297119,10.241000175476074 5.60099983215332,-15.182000160217285 5.60099983215332,-15.182000160217285 C5.60099983215332,-15.182000160217285 -0.9129999876022339,-15.182000160217285 -0.9129999876022339,-15.182000160217285z"></path></g></g><g transform="matrix(1,0,0,1,110.98100280761719,170.45001220703125)" opacity="1" style="display: block;"><g opacity="0.1" transform="matrix(1,0,0,1,97.30000305175781,214.2519989013672)"><path fill="rgb(43,43,43)" fill-opacity="1" d=" M-97.3010025024414,-2.4839999675750732 C-97.3010025024414,-2.4839999675750732 -1.4049999713897705,-15.29800033569336 -1.4049999713897705,-15.29800033569336 C-1.4049999713897705,-15.29800033569336 97.30000305175781,-2.555999994277954 97.30000305175781,-2.555999994277954 C97.30000305175781,-2.555999994277954 1.8359999656677246,15.29800033569336 1.8359999656677246,15.29800033569336 C1.8359999656677246,15.29800033569336 -97.3010025024414,-2.4839999675750732 -97.3010025024414,-2.4839999675750732z"></path></g><g opacity="1" transform="matrix(1,0,0,1,113.52100372314453,215.56500244140625)"><path fill="rgb(43,43,43)" fill-opacity="1" d=" M-6.96999979019165,-5.434999942779541 C-6.96999979019165,-5.434999942779541 -16.472999572753906,0.9049999713897705 -16.472999572753906,0.9049999713897705 C-16.472999572753906,0.9049999713897705 -16.402000427246094,5.434999942779541 -16.402000427246094,5.434999942779541 C-16.402000427246094,5.434999942779541 16.472999572753906,5.434999942779541 16.472999572753906,5.434999942779541 C16.472999572753906,5.434999942779541 16.384000778198242,1.2549999952316284 16.384000778198242,1.2549999952316284 C16.384000778198242,1.2549999952316284 -6.96999979019165,-5.434999942779541 -6.96999979019165,-5.434999942779541z"></path></g><g opacity="1" transform="matrix(1,0,0,1,113.47699737548828,202.27099609375)"><path fill="rgb(70,70,70)" fill-opacity="1" d=" M16.42799949645996,14.548999786376953 C16.42799949645996,14.548999786376953 -16.42799949645996,14.197999954223633 -16.42799949645996,14.197999954223633 C-16.42799949645996,14.197999954223633 -6.7870001792907715,-1.9249999523162842 -6.7870001792907715,-1.9249999523162842 C-6.7870001792907715,-1.9249999523162842 5.169000148773193,-14.548999786376953 5.169000148773193,-14.548999786376953 C5.169000148773193,-14.548999786376953 13.92199993133545,0.75 13.92199993133545,0.75 C13.92199993133545,0.75 16.42799949645996,14.548999786376953 16.42799949645996,14.548999786376953z"></path></g><g opacity="1" transform="matrix(1,0,0,1,64.19499969482422,209.14199829101562)"><path fill="rgb(43,43,43)" fill-opacity="1" d=" M2.7269999980926514,-5.867000102996826 C2.7269999980926514,-5.867000102996826 -22.989999771118164,1.0449999570846558 -22.989999771118164,1.0449999570846558 C-22.989999771118164,1.0449999570846558 -22.989999771118164,5.434999942779541 -22.989999771118164,5.434999942779541 C-22.989999771118164,5.434999942779541 22.989999771118164,5.867000102996826 22.989999771118164,5.867000102996826 C22.989999771118164,5.867000102996826 22.663999557495117,1.2599999904632568 22.663999557495117,1.2599999904632568 C22.663999557495117,1.2599999904632568 2.7269999980926514,-5.867000102996826 2.7269999980926514,-5.867000102996826z"></path></g><g opacity="1" transform="matrix(1,0,0,1,64.03199768066406,193.59100341796875)"><path fill="rgb(70,70,70)" fill-opacity="1" d=" M-22.82699966430664,16.59600067138672 C-22.82699966430664,16.59600067138672 22.82699966430664,16.81100082397461 22.82699966430664,16.81100082397461 C22.82699966430664,16.81100082397461 22.07200050354004,4.715000152587891 22.07200050354004,4.715000152587891 C22.07200050354004,4.715000152587891 13.144000053405762,-16.81100082397461 13.144000053405762,-16.81100082397461 C13.144000053405762,-16.81100082397461 0.2590000033378601,3.3589999675750732 0.2590000033378601,3.3589999675750732 C0.2590000033378601,3.3589999675750732 -22.82699966430664,16.59600067138672 -22.82699966430664,16.59600067138672z"></path></g><g opacity="1" transform="matrix(1,0,0,1,64.29100036621094,133.7270050048828)"><path fill="rgb(133,99,0)" fill-opacity="1" d=" M-10.692999839782715,23.74799919128418 C-10.692999839782715,23.74799919128418 -27.718000411987305,-35.92499923706055 -27.718000411987305,-35.92499923706055 C-27.718000411987305,-35.92499923706055 27.718000411987305,-16.485000610351562 27.718000411987305,-16.485000610351562 C27.718000411987305,-16.485000610351562 24.406999588012695,28.798999786376953 24.406999588012695,28.798999786376953 C24.406999588012695,28.798999786376953 4.392000198364258,35.92499923706055 4.392000198364258,35.92499923706055 C4.392000198364258,35.92499923706055 -10.692999839782715,23.74799919128418 -10.692999839782715,23.74799919128418z"></path></g><g opacity="1" transform="matrix(1,0,0,1,71.14800262451172,177.88999938964844)"><path fill="rgb(117,87,0)" fill-opacity="1" d=" M-6.855999946594238,19.05900001525879 C-6.855999946594238,19.05900001525879 -17.548999786376953,-20.415000915527344 -17.548999786376953,-20.415000915527344 C-17.548999786376953,-20.415000915527344 17.548999786376953,-15.364999771118164 17.548999786376953,-15.364999771118164 C17.548999786376953,-15.364999771118164 14.956000328063965,20.415000915527344 14.956000328063965,20.415000915527344 C14.956000328063965,20.415000915527344 -6.855999946594238,19.05900001525879 -6.855999946594238,19.05900001525879z"></path></g><g opacity="1" transform="matrix(1,0,0,1,101.5479965209961,141.8260040283203)"><path fill="rgb(158,119,0)" fill-opacity="1" d=" M-6.874000072479248,20.916000366210938 C-6.874000072479248,20.916000366210938 -19.618000030517578,-17.386999130249023 -19.618000030517578,-17.386999130249023 C-19.618000030517578,-17.386999130249023 -34.0890007019043,-32.071998596191406 -34.0890007019043,-32.071998596191406 C-34.0890007019043,-32.071998596191406 9.682000160217285,-31.71299934387207 9.682000160217285,-31.71299934387207 C9.682000160217285,-31.71299934387207 9.467000007629395,-15.22599983215332 9.467000007629395,-15.22599983215332 C9.467000007629395,-15.22599983215332 22.065000534057617,-28.04199981689453 22.065000534057617,-28.04199981689453 C22.065000534057617,-28.04199981689453 34.0890007019043,-35.96200180053711 34.0890007019043,-35.96200180053711 C34.0890007019043,-35.96200180053711 29.625999450683594,18.179000854492188 29.625999450683594,18.179000854492188 C29.625999450683594,18.179000854492188 11.986000061035156,35.96200180053711 11.986000061035156,35.96200180053711 C11.986000061035156,35.96200180053711 -6.874000072479248,20.916000366210938 -6.874000072479248,20.916000366210938z"></path></g><g opacity="1" transform="matrix(1,0,0,1,112.9229965209961,181.51300048828125)"><path fill="rgb(117,87,0)" fill-opacity="1" d=" M-6.232999801635742,18.833999633789062 C-6.232999801635742,18.833999633789062 -18.250999450683594,-18.770000457763672 -18.250999450683594,-18.770000457763672 C-18.250999450683594,-18.770000457763672 18.250999450683594,-21.507999420166016 18.250999450683594,-21.507999420166016 C18.250999450683594,-21.507999420166016 14.47599983215332,21.507999420166016 14.47599983215332,21.507999420166016 C14.47599983215332,21.507999420166016 -6.232999801635742,18.833999633789062 -6.232999801635742,18.833999633789062z"></path></g></g><g transform="matrix(1,0,0,1,110.98100280761719,170.45001220703125)" opacity="1" style="display: block;"><g opacity="1" transform="matrix(1,0,0,1,73.68499755859375,58.13399887084961)"><path fill="rgb(228,199,40)" fill-opacity="1" d=" M37.112998962402344,51.979000091552734 C37.112998962402344,51.979000091552734 -10.041999816894531,50.106998443603516 -10.041999816894531,50.106998443603516 C-10.041999816894531,50.106998443603516 -37.112998962402344,39.667999267578125 -37.112998962402344,39.667999267578125 C-37.112998962402344,39.667999267578125 -21.128999710083008,-17.350000381469727 -21.128999710083008,-17.350000381469727 C-21.128999710083008,-17.350000381469727 -5.650000095367432,-51.979000091552734 -5.650000095367432,-51.979000091552734 C-5.650000095367432,-51.979000091552734 15.467000007629395,-68.34400177001953 15.467000007629395,-68.34400177001953 C15.467000007629395,-68.34400177001953 26.3700008392334,-61.88399887084961 26.3700008392334,-61.88399887084961 C26.3700008392334,-61.88399887084961 30.288000106811523,-58.75699996948242 30.288000106811523,-58.75699996948242 C30.288000106811523,-58.75699996948242 31.209999084472656,-51.1879997253418 31.209999084472656,-51.1879997253418 C31.209999084472656,-51.1879997253418 36.5369987487793,-5.831999778747559 36.5369987487793,-5.831999778747559 C36.5369987487793,-5.831999778747559 37.112998962402344,51.979000091552734 37.112998962402344,51.979000091552734z"></path></g><g opacity="1" transform="matrix(1,0,0,1,81.49800109863281,55.9010009765625)"><path fill="rgb(204,172,19)" fill-opacity="1" d=" M-32.255001068115234,-3.743000030517578 C-32.255001068115234,-3.743000030517578 -28.941999435424805,-15.118000030517578 -28.941999435424805,-15.118000030517578 C-28.941999435424805,-15.118000030517578 -28.222999572753906,-16.70199966430664 -28.222999572753906,-16.70199966430664 C-28.222999572753906,-16.70199966430664 -22.895000457763672,-21.95800018310547 -22.895000457763672,-21.95800018310547 C-22.895000457763672,-21.95800018310547 24.476999282836914,-17.27899932861328 24.476999282836914,-17.27899932861328 C24.476999282836914,-17.27899932861328 28.148000717163086,-7.919000148773193 28.148000717163086,-7.919000148773193 C28.148000717163086,-7.919000148773193 28.725000381469727,-3.5989999771118164 28.725000381469727,-3.5989999771118164 C28.725000381469727,-3.5989999771118164 28.437000274658203,4.751999855041504 28.437000274658203,4.751999855041504 C28.437000274658203,4.751999855041504 34.41400146484375,21.95800018310547 34.41400146484375,21.95800018310547 C34.41400146484375,21.95800018310547 -34.41400146484375,11.303000450134277 -34.41400146484375,11.303000450134277 C-34.41400146484375,11.303000450134277 -32.255001068115234,-3.743000030517578 -32.255001068115234,-3.743000030517578z"></path></g><g opacity="1" transform="matrix(1,0,0,1,38.48099899291992,57.37699890136719)"><path fill="rgb(181,138,0)" fill-opacity="1" d=" M-29.625999450683594,51.152000427246094 C-29.625999450683594,51.152000427246094 9.467000007629395,-50 9.467000007629395,-50 C9.467000007629395,-50 29.625999450683594,-51.152000427246094 29.625999450683594,-51.152000427246094 C29.625999450683594,-51.152000427246094 -1.909000039100647,40.42399978637695 -1.909000039100647,40.42399978637695 C-1.909000039100647,40.42399978637695 -29.625999450683594,51.152000427246094 -29.625999450683594,51.152000427246094z"></path></g><g opacity="1" transform="matrix(1,0,0,1,73.29000091552734,115.4280014038086)"><path fill="rgb(117,87,0)" fill-opacity="1" d=" M-36.71699905395508,-17.697999954223633 C-36.71699905395508,-17.697999954223633 11.529000282287598,17.697999954223633 11.529000282287598,17.697999954223633 C11.529000282287598,17.697999954223633 36.71699905395508,-5.314000129699707 36.71699905395508,-5.314000129699707 C36.71699905395508,-5.314000129699707 -36.71699905395508,-17.697999954223633 -36.71699905395508,-17.697999954223633z"></path></g><g opacity="1" transform="matrix(1,0,0,1,126.85299682617188,64.50499725341797)"><path fill="rgb(181,138,0)" fill-opacity="1" d=" M-15.838000297546387,64.25499725341797 C-15.838000297546387,64.25499725341797 21.95800018310547,29.554000854492188 21.95800018310547,29.554000854492188 C21.95800018310547,29.554000854492188 -3.239000082015991,-64.25499725341797 -3.239000082015991,-64.25499725341797 C-3.239000082015991,-64.25499725341797 -21.95800018310547,-57.55799865722656 -21.95800018310547,-57.55799865722656 C-21.95800018310547,-57.55799865722656 -15.838000297546387,64.25499725341797 -15.838000297546387,64.25499725341797z"></path></g></g><g transform="matrix(1,0,0,1,129.88099670410156,-0.24798588454723358)" opacity="1" style="display: block;"><g opacity="1" transform="matrix(1,0,0,1,96.73500061035156,108.34600067138672)"><path fill="rgb(195,151,122)" fill-opacity="1" d=" M-2.822000026702881,-48.051998138427734 C-2.822000026702881,-48.051998138427734 25.187000274658203,-37.46900177001953 25.187000274658203,-37.46900177001953 C25.187000274658203,-37.46900177001953 11.001999855041504,22.503000259399414 11.001999855041504,22.503000259399414 C11.001999855041504,22.503000259399414 -25.187000274658203,48.051998138427734 -25.187000274658203,48.051998138427734 C-25.187000274658203,48.051998138427734 -18.802000045776367,21.135000228881836 -18.802000045776367,21.135000228881836 C-18.802000045776367,21.135000228881836 -4.189000129699707,-39.77299880981445 -4.189000129699707,-39.77299880981445 C-4.189000129699707,-39.77299880981445 -3.9019999504089355,-40.422000885009766 -3.9019999504089355,-40.422000885009766 C-3.9019999504089355,-40.422000885009766 -2.822000026702881,-48.051998138427734 -2.822000026702881,-48.051998138427734z"></path></g><g opacity="1" transform="matrix(1,0,0,1,88.01100158691406,155.03700256347656)"><path fill="rgb(195,151,122)" fill-opacity="1" d=" M-12.958000183105469,-24.26099967956543 C-12.958000183105469,-24.26099967956543 19.726999282836914,-24.18899917602539 19.726999282836914,-24.18899917602539 C19.726999282836914,-24.18899917602539 18.06999969482422,-19.8700008392334 18.06999969482422,-19.8700008392334 C18.06999969482422,-19.8700008392334 2.0889999866485596,21.45400047302246 2.0889999866485596,21.45400047302246 C2.0889999866485596,21.45400047302246 -0.14399999380111694,22.173999786376953 -0.14399999380111694,22.173999786376953 C-0.14399999380111694,22.173999786376953 -6.190999984741211,24.26099967956543 -6.190999984741211,24.26099967956543 C-6.190999984741211,24.26099967956543 -19.726999282836914,-1.1169999837875366 -19.726999282836914,-1.1169999837875366 C-19.726999282836914,-1.1169999837875366 -12.958000183105469,-24.26099967956543 -12.958000183105469,-24.26099967956543z"></path></g><g opacity="1" transform="matrix(1,0,0,1,46.577999114990234,102.29900360107422)"><path fill="rgb(223,188,164)" fill-opacity="1" d=" M13.859999656677246,-43.084999084472656 C13.859999656677246,-43.084999084472656 -15.946999549865723,-47.1879997253418 -15.946999549865723,-47.1879997253418 C-15.946999549865723,-47.1879997253418 -23.937000274658203,-34.303001403808594 -23.937000274658203,-34.303001403808594 C-23.937000274658203,-34.303001403808594 -29.48200035095215,-13.35200023651123 -29.48200035095215,-13.35200023651123 C-29.48200035095215,-13.35200023651123 -46.327999114990234,30.062000274658203 -46.327999114990234,30.062000274658203 C-46.327999114990234,30.062000274658203 30.302000045776367,47.1879997253418 30.302000045776367,47.1879997253418 C30.302000045776367,47.1879997253418 46.25600051879883,-34.374000549316406 46.25600051879883,-34.374000549316406 C46.25600051879883,-34.374000549316406 46.327999114990234,-34.80500030517578 46.327999114990234,-34.80500030517578 C46.327999114990234,-34.80500030517578 13.859999656677246,-43.084999084472656 13.859999656677246,-43.084999084472656z"></path></g><g opacity="1" transform="matrix(1,0,0,1,52.986000061035156,84.26699829101562)"><path fill="rgb(195,151,122)" fill-opacity="1" d=" M-11.699000358581543,11.015000343322754 C-11.699000358581543,11.015000343322754 -15.87399959564209,-4.248000144958496 -15.87399959564209,-4.248000144958496 C-15.87399959564209,-4.248000144958496 -24.94700050354004,-13.319000244140625 -24.94700050354004,-13.319000244140625 C-24.94700050354004,-13.319000244140625 -14.218999862670898,-12.456000328063965 -14.218999862670898,-12.456000328063965 C-14.218999862670898,-12.456000328063965 -8.38700008392334,-9.288000106811523 -8.38700008392334,-9.288000106811523 C-8.38700008392334,-9.288000106811523 -4.138999938964844,-7.8470001220703125 -4.138999938964844,-7.8470001220703125 C-4.138999938964844,-7.8470001220703125 1.7640000581741333,-6.479000091552734 1.7640000581741333,-6.479000091552734 C1.7640000581741333,-6.479000091552734 8.315999984741211,-5.544000148773193 8.315999984741211,-5.544000148773193 C8.315999984741211,-5.544000148773193 16.81100082397461,-6.479000091552734 16.81100082397461,-6.479000091552734 C16.81100082397461,-6.479000091552734 24.94700050354004,-1.944000005722046 24.94700050354004,-1.944000005722046 C24.94700050354004,-1.944000005722046 12.994999885559082,0.6480000019073486 12.994999885559082,0.6480000019073486 C12.994999885559082,0.6480000019073486 -2.9149999618530273,13.319000244140625 -2.9149999618530273,13.319000244140625 C-2.9149999618530273,13.319000244140625 -11.699000358581543,11.015000343322754 -11.699000358581543,11.015000343322754z"></path></g><g opacity="1" transform="matrix(1,0,0,1,58.32899856567383,161.97300720214844)"><path fill="rgb(138,102,81)" fill-opacity="1" d=" M-9.194000244140625,14.880000114440918 C-9.194000244140625,14.880000114440918 -31.797000885009766,-23.44499969482422 -31.797000885009766,-23.44499969482422 C-31.797000885009766,-23.44499969482422 31.797000885009766,-11.491999626159668 31.797000885009766,-11.491999626159668 C31.797000885009766,-11.491999626159668 23.489999771118164,17.326000213623047 23.489999771118164,17.326000213623047 C23.489999771118164,17.326000213623047 5.276000022888184,23.445999145507812 5.276000022888184,23.445999145507812 C5.276000022888184,23.445999145507812 -9.194000244140625,14.880000114440918 -9.194000244140625,14.880000114440918z"></path></g><g opacity="1" transform="matrix(1,0,0,1,101.29399871826172,122.6050033569336)"><path fill="rgb(138,102,81)" fill-opacity="1" d=" M7.164000034332275,5.289999961853027 C7.164000034332275,5.289999961853027 6.442999839782715,8.243000030517578 6.442999839782715,8.243000030517578 C6.442999839782715,8.243000030517578 -7.164000034332275,-4.7170000076293945 -7.164000034332275,-4.7170000076293945 C-7.164000034332275,-4.7170000076293945 5.076000213623047,-8.243000030517578 5.076000213623047,-8.243000030517578 C5.076000213623047,-8.243000030517578 7.164000034332275,5.289999961853027 7.164000034332275,5.289999961853027z"></path></g><g opacity="1" transform="matrix(1,0,0,1,23.503999710083008,44.5989990234375)"><path fill="rgb(70,70,70)" fill-opacity="1" d=" M-6.4079999923706055,44.347999572753906 C-6.4079999923706055,44.347999572753906 7.126999855041504,10.51200008392334 7.126999855041504,10.51200008392334 C7.126999855041504,10.51200008392334 4.105000019073486,-9.069999694824219 4.105000019073486,-9.069999694824219 C4.105000019073486,-9.069999694824219 -7.126999855041504,-44.347999572753906 -7.126999855041504,-44.347999572753906 C-7.126999855041504,-44.347999572753906 -6.4079999923706055,44.347999572753906 -6.4079999923706055,44.347999572753906z"></path></g><g opacity="1" transform="matrix(1,0,0,1,117.45700073242188,97.44300079345703)"><path fill="rgb(70,70,70)" fill-opacity="1" d=" M-16.197999954223633,5.829999923706055 C-16.197999954223633,5.829999923706055 -9.720000267028809,33.40599822998047 -9.720000267028809,33.40599822998047 C-9.720000267028809,33.40599822998047 16.197999954223633,-33.40599822998047 16.197999954223633,-33.40599822998047 C16.197999954223633,-33.40599822998047 1.4390000104904175,-18.358999252319336 1.4390000104904175,-18.358999252319336 C1.4390000104904175,-18.358999252319336 -16.197999954223633,5.829999923706055 -16.197999954223633,5.829999923706055z"></path></g><g opacity="1" transform="matrix(1,0,0,1,113.24400329589844,83.33100128173828)"><path fill="rgb(43,43,43)" fill-opacity="1" d=" M-11.984999656677246,19.941999435424805 C-11.984999656677246,19.941999435424805 20.410999298095703,-19.29400062561035 20.410999298095703,-19.29400062561035 C20.410999298095703,-19.29400062561035 12.635000228881836,-19.941999435424805 12.635000228881836,-19.941999435424805 C12.635000228881836,-19.941999435424805 -5.650000095367432,-17.854999542236328 -5.650000095367432,-17.854999542236328 C-5.650000095367432,-17.854999542236328 -20.410999298095703,-15.406999588012695 -20.410999298095703,-15.406999588012695 C-20.410999298095703,-15.406999588012695 -15.513999938964844,9.718000411987305 -15.513999938964844,9.718000411987305 C-15.513999938964844,9.718000411987305 -11.984999656677246,19.941999435424805 -11.984999656677246,19.941999435424805z"></path></g><g opacity="1" transform="matrix(1,0,0,1,113.24400329589844,48.486000061035156)"><path fill="rgb(70,70,70)" fill-opacity="1" d=" M20.410999298095703,15.550999641418457 C20.410999298095703,15.550999641418457 -9.467000007629395,-19.437999725341797 -9.467000007629395,-19.437999725341797 C-9.467000007629395,-19.437999725341797 -16.594999313354492,-3.815999984741211 -16.594999313354492,-3.815999984741211 C-16.594999313354492,-3.815999984741211 -20.410999298095703,19.437999725341797 -20.410999298095703,19.437999725341797 C-20.410999298095703,19.437999725341797 20.410999298095703,15.550999641418457 20.410999298095703,15.550999641418457z"></path></g><g opacity="1" transform="matrix(1,0,0,1,41.21500015258789,31.351999282836914)"><path fill="rgb(110,112,115)" fill-opacity="1" d=" M-10.583999633789062,23.757999420166016 C-10.583999633789062,23.757999420166016 24.83799934387207,31.10099983215332 24.83799934387207,31.10099983215332 C24.83799934387207,31.10099983215332 2.5199999809265137,-0.36000001430511475 2.5199999809265137,-0.36000001430511475 C2.5199999809265137,-0.36000001430511475 -24.83799934387207,-31.10099983215332 -24.83799934387207,-31.10099983215332 C-24.83799934387207,-31.10099983215332 -10.583999633789062,23.757999420166016 -10.583999633789062,23.757999420166016z"></path></g><g opacity="1" transform="matrix(1,0,0,1,60.07699966430664,34.08700180053711)"><path fill="rgb(79,82,82)" fill-opacity="1" d=" M5.97599983215332,28.365999221801758 C5.97599983215332,28.365999221801758 32.75600051879883,33.83700180053711 32.75600051879883,33.83700180053711 C32.75600051879883,33.83700180053711 43.70000076293945,-5.039000034332275 43.70000076293945,-5.039000034332275 C43.70000076293945,-5.039000034332275 -43.70000076293945,-33.83700180053711 -43.70000076293945,-33.83700180053711 C-43.70000076293945,-33.83700180053711 5.97599983215332,28.365999221801758 5.97599983215332,28.365999221801758z"></path></g><g opacity="1" transform="matrix(1,0,0,1,104.6050033569336,106.44100189208984)"><path fill="rgb(223,188,164)" fill-opacity="1" d=" M-6.875,-13.390999794006348 C-6.875,-13.390999794006348 10.475000381469727,-10.510000228881836 10.475000381469727,-10.510000228881836 C10.475000381469727,-10.510000228881836 4.788000106811523,13.390999794006348 4.788000106811523,13.390999794006348 C4.788000106811523,13.390999794006348 -10.475000381469727,11.446999549865723 -10.475000381469727,11.446999549865723 C-10.475000381469727,11.446999549865723 -6.875,-13.390999794006348 -6.875,-13.390999794006348z"></path></g><g opacity="1" transform="matrix(1,0,0,1,103.63400268554688,102.40899658203125)"><path fill="rgb(138,102,81)" fill-opacity="1" d=" M4.248000144958496,-3.1670000553131104 C4.248000144958496,-3.1670000553131104 -3.4549999237060547,-3.815000057220459 -3.4549999237060547,-3.815000057220459 C-3.4549999237060547,-3.815000057220459 -4.248000144958496,3.815000057220459 -4.248000144958496,3.815000057220459 C-4.248000144958496,3.815000057220459 4.248000144958496,-3.1670000553131104 4.248000144958496,-3.1670000553131104z"></path></g><g opacity="1" transform="matrix(1,0,0,1,47.44200134277344,87.00299835205078)"><path fill="rgb(232,201,182)" fill-opacity="1" d=" M1.4049999713897705,-10.583000183105469 C1.4049999713897705,-10.583000183105469 -7.307000160217285,9.142999649047852 -7.307000160217285,9.142999649047852 C-7.307000160217285,9.142999649047852 2.628999948501587,10.583000183105469 2.628999948501587,10.583000183105469 C2.628999948501587,10.583000183105469 7.307000160217285,-9.21500015258789 7.307000160217285,-9.21500015258789 C7.307000160217285,-9.21500015258789 1.4049999713897705,-10.583000183105469 1.4049999713897705,-10.583000183105469z"></path></g><g opacity="1" transform="matrix(1,0,0,1,45.10300064086914,99.52999877929688)"><path fill="rgb(138,102,81)" fill-opacity="1" d=" M-1.440000057220459,3.384000062942505 C-1.440000057220459,3.384000062942505 -4.9670000076293945,-3.384000062942505 -4.9670000076293945,-3.384000062942505 C-4.9670000076293945,-3.384000062942505 4.9670000076293945,-1.9429999589920044 4.9670000076293945,-1.9429999589920044 C4.9670000076293945,-1.9429999589920044 -1.440000057220459,3.384000062942505 -1.440000057220459,3.384000062942505z"></path></g><g opacity="1" transform="matrix(1,0,0,1,36.13999938964844,70.84100341796875)"><path fill="rgb(43,43,43)" fill-opacity="1" d=" M-8.460000038146973,0.035999998450279236 C-8.460000038146973,0.035999998450279236 2.3399999141693115,-4.139999866485596 2.3399999141693115,-4.139999866485596 C2.3399999141693115,-4.139999866485596 8.460000038146973,4.139999866485596 8.460000038146973,4.139999866485596 C8.460000038146973,4.139999866485596 -8.460000038146973,0.035999998450279236 -8.460000038146973,0.035999998450279236z"></path></g><g opacity="1" transform="matrix(1,0,0,1,70.76899719238281,79.26300048828125)"><path fill="rgb(43,43,43)" fill-opacity="1" d=" M-9.467000007629395,-0.5400000214576721 C-9.467000007629395,-0.5400000214576721 1.1169999837875366,-5.004000186920166 1.1169999837875366,-5.004000186920166 C1.1169999837875366,-5.004000186920166 9.467000007629395,5.004000186920166 9.467000007629395,5.004000186920166 C9.467000007629395,5.004000186920166 -9.467000007629395,-0.5400000214576721 -9.467000007629395,-0.5400000214576721z"></path></g></g><g transform="matrix(1,0,0,1,129.88099670410156,-0.24798588454723358)" opacity="1" style="display: block;"><g opacity="1" transform="matrix(1,0,0,1,97.58599853515625,173.54100036621094)"><path fill="rgb(133,99,0)" fill-opacity="1" d=" M11.592000007629395,13.895000457763672 C11.592000007629395,13.895000457763672 -11.592000007629395,4.104000091552734 -11.592000007629395,4.104000091552734 C-11.592000007629395,4.104000091552734 -0.9359999895095825,-13.895000457763672 -0.9359999895095825,-13.895000457763672 C-0.9359999895095825,-13.895000457763672 7.126999855041504,-2.5920000076293945 7.126999855041504,-2.5920000076293945 C7.126999855041504,-2.5920000076293945 11.592000007629395,13.895000457763672 11.592000007629395,13.895000457763672z"></path></g></g><g transform="matrix(1,0,0,1,160.83799743652344,107.81401824951172)" opacity="1" style="display: block;"><g opacity="1" transform="matrix(1,0,0,1,21.993000030517578,12.418000221252441)"><path fill="rgb(195,151,122)" fill-opacity="1" d=" M-21.743000030517578,-10.654999732971191 C-21.743000030517578,-10.654999732971191 21.743000030517578,-12.168000221252441 21.743000030517578,-12.168000221252441 C21.743000030517578,-12.168000221252441 8.135000228881836,12.168000221252441 8.135000228881836,12.168000221252441 C8.135000228881836,12.168000221252441 -15.04699993133545,11.015000343322754 -15.04699993133545,11.015000343322754 C-15.04699993133545,11.015000343322754 -21.743000030517578,-10.654999732971191 -21.743000030517578,-10.654999732971191z"></path></g><g opacity="1" transform="matrix(1,0,0,1,19.292999267578125,12.166000366210938)"><path fill="rgb(255,255,255)" fill-opacity="1" d=" M-16.882999420166016,-9.251999855041504 C-16.882999420166016,-9.251999855041504 16.882999420166016,-9.03499984741211 16.882999420166016,-9.03499984741211 C16.882999420166016,-9.03499984741211 9.538999557495117,9.251999855041504 9.538999557495117,9.251999855041504 C9.538999557495117,9.251999855041504 -10.979000091552734,8.746000289916992 -10.979000091552734,8.746000289916992 C-10.979000091552734,8.746000289916992 -16.882999420166016,-9.251999855041504 -16.882999420166016,-9.251999855041504z"></path></g></g><g transform="matrix(1,0,0,1,163.28599548339844,78.29801177978516)" opacity="1" style="display: block;"><g opacity="1" transform="matrix(1.000000238418579,0,0,1.000000238418579,31.92799949645996,10.472999572753906)"><path fill="rgb(43,43,43)" fill-opacity="1" d=" M-0.0010000000474974513,-4.320000171661377 C-2.375999927520752,-4.320000171661377 -4.318999767303467,-2.303999900817871 -4.318999767303467,-0.0010000000474974513 C-4.318999767303467,2.375 -2.375999927520752,4.320000171661377 -0.0010000000474974513,4.320000171661377 C2.447000026702881,4.320000171661377 4.318999767303467,2.375 4.318999767303467,-0.0010000000474974513 C4.318999767303467,-2.303999900817871 2.447000026702881,-4.320000171661377 -0.0010000000474974513,-4.320000171661377z"></path></g><g opacity="1" transform="matrix(1,0,0,1,4.568999767303467,4.570000171661377)"><path fill="rgb(43,43,43)" fill-opacity="1" d=" M-0.07199999690055847,-4.320000171661377 C-2.447999954223633,-4.320000171661377 -4.320000171661377,-2.375999927520752 -4.320000171661377,-0.0010000000474974513 C-4.320000171661377,2.375 -2.447999954223633,4.320000171661377 -0.07199999690055847,4.320000171661377 C2.302999973297119,4.320000171661377 4.320000171661377,2.375 4.320000171661377,-0.0010000000474974513 C4.320000171661377,-2.375999927520752 2.302999973297119,-4.320000171661377 -0.07199999690055847,-4.320000171661377z"></path></g></g><g transform="matrix(0.9986295104026794,-0.052335962653160095,0.052335962653160095,0.9986295104026794,200.69400024414062,199.7110137939453)" opacity="1" style="display: none;"><g opacity="1" transform="matrix(1,0,0,1,0,0)"><path stroke-linecap="butt" stroke-linejoin="miter" fill-opacity="0" stroke-miterlimit="4" stroke="rgb(43,43,43)" stroke-opacity="1" stroke-width="4" d=" M-5.5,-110.49099731445312 C-5.5,-110.49099731445312 0.012000000104308128,-107.49400329589844 0.012000000104308128,-107.49400329589844 C0.012000000104308128,-107.49400329589844 7,-109 7,-109"></path></g></g></g></svg>